<svg width="16" height="18" viewBox="0 0 16 18" fill="none" xmlns="http://www.w3.org/2000/svg">
<path fill-rule="evenodd" clip-rule="evenodd" d="M16 5.69321V12.3068C16 13.1594 15.5515 13.9473 14.8235 14.3735L9.17648 17.6803C8.44854 18.1066 7.55148 18.1066 6.82352 17.6803L1.17647 14.3735C0.44835 13.9473 0 13.1594 0 12.3068V5.69321C0 4.8406 0.44835 4.05274 1.17647 3.62654L6.82352 0.319668C7.55148 -0.106556 8.44854 -0.106556 9.17648 0.319668L14.8235 3.62654C15.5515 4.05274 16 4.8406 16 5.69321ZM8.62925 3.81718H7.97558C7.50364 3.81718 7.12114 4.20513 7.12114 4.68362V12.1879C7.12114 12.6763 7.51138 13.0721 7.99292 13.0721C8.47429 13.0721 8.86454 12.6763 8.86454 12.1879V4.05566C8.86454 3.92395 8.75928 3.81718 8.62925 3.81718ZM11.0117 6.34277H11.6656C11.7956 6.34277 11.9008 6.4497 11.9008 6.58142V12.1882C11.9008 12.6766 11.5106 13.0723 11.0291 13.0723C10.5477 13.0723 10.1575 12.6766 10.1575 12.1882V7.20938C10.1575 6.73073 10.54 6.34278 11.0117 6.34277ZM5.60696 9.53075H4.95313C4.48135 9.53075 4.09885 9.91869 4.09885 10.3973V12.2027C4.09885 12.6911 4.48911 13.0869 4.97049 13.0869C5.45202 13.0869 5.84228 12.6911 5.84228 12.2027V9.76938C5.84228 9.63751 5.737 9.53075 5.60696 9.53075Z" fill="white"/>
</svg>
