<svg width="16" height="16" viewBox="0 0 16 16" fill="none" xmlns="http://www.w3.org/2000/svg">
<path fill-rule="evenodd" clip-rule="evenodd" d="M13.8521 13.458L10.4944 8.93841H10.2517L10.0079 9.18437L9.6497 8.68444C10.4457 7.86912 10.9383 6.75025 10.9383 5.51643C10.9383 3.02643 8.93373 1 6.46908 1C4.0047 1 2 3.02642 2 5.51643C2 8.00686 4.0047 10.0329 6.46908 10.0329C7.19899 10.0329 7.88737 9.85107 8.49685 9.53646L8.94414 10.0514L8.6752 10.3244V10.4538C8.6752 10.4538 11.9812 14.649 12.1865 14.8559C12.3912 15.0636 12.8526 14.9857 12.8526 14.9857C12.8526 14.9857 13.5191 14.5965 13.8521 14.2602C14.1848 13.9236 13.8521 13.4581 13.8521 13.4581L13.8521 13.458ZM3.57853 5.51643C3.57853 3.90627 4.87511 2.59559 6.46901 2.59559C8.06308 2.59559 9.3595 3.90627 9.3595 5.51643C9.3595 7.12747 8.06308 8.43772 6.46901 8.43772C4.87511 8.43772 3.57853 7.12747 3.57853 5.51643Z" fill="#C7C9CD"/>
</svg>
